<?xml version="1.0" encoding="UTF-8"?>
<svg width="402px" height="172px" viewBox="0 0 402 172" version="1.1" xmlns="http://www.w3.org/2000/svg" xmlns:xlink="http://www.w3.org/1999/xlink">
    <!-- Generator: Sketch 52.4 (67378) - http://www.bohemiancoding.com/sketch -->
    <title>Untitled</title>
    <desc>Created with Sketch.</desc>
    <g id="Page-1" stroke="none" stroke-width="1" fill="none" fill-rule="evenodd">
        <g id="SvgjsG1009" transform="translate(1.000000, 1.000000)" fill="#D1FCDC" stroke="#A3EFA4">
            <rect id="Rectangle" x="0" y="0" width="400" height="170"></rect>
        </g>
        <g id="SvgjsG1011" transform="translate(59.000000, 48.000000)">
            <g id="Group" transform="translate(0.375000, 0.937500)">
                <g id="Path">
                    <polygon fill="#A3EFA4" points="75.19 0.687 0 75.313 30.434 75.313 60.773 45.201"></polygon>
                    <polygon fill="#585858" points="105.623 0.687 60.773 45.201 51.021 75.313 70.714 75.313 86.606 59.41"></polygon>
                    <polygon fill="#C8C8C8" points="30.434 75.313 51.021 75.313 60.773 45.201"></polygon>
                    <polygon fill="#A3EFA4" points="109.264 36.735 86.606 59.41 70.714 75.313 87.449 75.313 101.337 61.416 109.264 36.735"></polygon>
                    <polygon fill="#585858" points="101.337 61.416 96.873 75.313 113.609 75.313 126 36.735"></polygon>
                    <polygon fill="#C8C8C8" points="87.449 75.313 96.873 75.313 101.337 61.416 87.449 75.313"></polygon>
                </g>
            </g>
        </g>
        <g id="SvgjsG1013" transform="translate(201.000000, 62.000000)" fill="#585858" fill-rule="nonzero">
            <g id="Group" transform="translate(0.375000, 0.250000)">
                <path d="M12.13,5.52 L12.13,20.05 L8.38,20.05 L8.38,5.52 C8.38,4.85333333 8.21333333,4.38 7.88,4.1 C7.54666667,3.81333333 7.16333333,3.67 6.73,3.67 C6.47666667,3.67 6.23,3.71333333 5.99,3.8 C5.74333333,3.89333333 5.51666667,4.02 5.31,4.18 C5.11,4.34666667 4.94666667,4.54333333 4.82,4.77 C4.69333333,4.99666667 4.63,5.24666667 4.63,5.52 L4.63,42.08 C4.63,42.3533333 4.69333333,42.6066667 4.82,42.84 C4.94666667,43.0733333 5.11,43.2733333 5.31,43.44 C5.51666667,43.6066667 5.74333333,43.7333333 5.99,43.82 C6.23,43.9133333 6.47666667,43.96 6.73,43.96 C7.16333333,43.96 7.54666667,43.8133333 7.88,43.52 C8.21333333,43.2266667 8.38,42.7466667 8.38,42.08 L8.38,25.67 L12.13,25.67 L12.13,42.08 C12.13,42.86 11.9633333,43.55 11.63,44.15 C11.2966667,44.7433333 10.8666667,45.24 10.34,45.64 C9.81333333,46.04 9.20666667,46.3433333 8.52,46.55 C7.84,46.7566667 7.14666667,46.86 6.44,46.86 C5.74,46.86 5.05666667,46.76 4.39,46.56 C3.72333333,46.3666667 3.12666667,46.07 2.6,45.67 C2.07333333,45.27 1.65333333,44.77 1.34,44.17 C1.03333333,43.5766667 0.88,42.88 0.88,42.08 L0.88,5.52 C0.88,4.74 1.04,4.04666667 1.36,3.44 C1.68,2.83333333 2.10333333,2.33333333 2.63,1.94 C3.15666667,1.55333333 3.76333333,1.25666667 4.45,1.05 C5.13,0.843333333 5.82333333,0.74 6.53,0.74 C7.23,0.74 7.91333333,0.84 8.58,1.04 C9.24666667,1.23333333 9.84333333,1.53 10.37,1.93 C10.8966667,2.33 11.32,2.82666667 11.64,3.42 C11.9666667,4.02 12.13,4.72 12.13,5.52 Z M28.13,5.52 L28.13,42.08 C28.13,42.9 27.9766667,43.6066667 27.67,44.2 C27.37,44.8 26.9666667,45.2933333 26.46,45.68 C25.9466667,46.0733333 25.37,46.3633333 24.73,46.55 C24.0833333,46.7366667 23.4166667,46.83 22.73,46.83 C22.01,46.83 21.3,46.7266667 20.6,46.52 C19.8933333,46.3133333 19.2666667,46.01 18.72,45.61 C18.1733333,45.21 17.73,44.7133333 17.39,44.12 C17.05,43.52 16.88,42.84 16.88,42.08 L16.88,5.52 C16.88,4.77333333 17.05,4.11333333 17.39,3.54 C17.73,2.96666667 18.18,2.48333333 18.74,2.09 C19.2933333,1.69666667 19.9233333,1.4 20.63,1.2 C21.33,0.993333333 22.04,0.89 22.76,0.89 C23.4466667,0.89 24.1133333,0.983333333 24.76,1.17 C25.4,1.35666667 25.97,1.64 26.47,2.02 C26.97,2.4 27.37,2.88333333 27.67,3.47 C27.9766667,4.05666667 28.13,4.74 28.13,5.52 Z M24.38,42.08 L24.38,5.52 C24.38,4.85333333 24.2166667,4.38 23.89,4.1 C23.57,3.81333333 23.1933333,3.67 22.76,3.67 C22.5066667,3.67 22.2533333,3.71333333 22,3.8 C21.7466667,3.89333333 21.5166667,4.02 21.31,4.18 C21.11,4.34666667 20.9466667,4.54333333 20.82,4.77 C20.6933333,4.99666667 20.63,5.24666667 20.63,5.52 L20.63,42.08 C20.63,42.3533333 20.6933333,42.6066667 20.82,42.84 C20.9466667,43.0733333 21.11,43.27 21.31,43.43 C21.5166667,43.5833333 21.7433333,43.7033333 21.99,43.79 C22.23,43.8833333 22.4766667,43.93 22.73,43.93 C23.1633333,43.93 23.5466667,43.7866667 23.88,43.5 C24.2133333,43.22 24.38,42.7466667 24.38,42.08 Z M40.38,42.58 L40.38,4.99 C40.38,4.61666667 40.2033333,4.38333333 39.85,4.29 C39.5166667,4.17 38.4433333,4.11 36.63,4.11 L36.63,43.49 C38.4433333,43.49 39.5166667,43.43 39.85,43.31 C40.2033333,43.19 40.38,42.9466667 40.38,42.58 Z M44.13,5.08 L44.13,42.34 C44.13,43.34 43.92,44.1066667 43.5,44.64 C43.08,45.18 42.4566667,45.5766667 41.63,45.83 C41.2433333,45.95 40.7666667,46.0433333 40.2,46.11 C39.6333333,46.1766667 38.8533333,46.23 37.86,46.27 C36.86,46.29 35.98,46.3 35.22,46.3 L32.88,46.3 L32.88,1.3 C33.68,1.3 34.4833333,1.30333333 35.29,1.31 C36.1033333,1.32333333 36.93,1.34 37.77,1.36 C39.49,1.4 40.76,1.52666667 41.58,1.74 C42.42,1.97333333 43.0533333,2.35 43.48,2.87 C43.9133333,3.38333333 44.13,4.12 44.13,5.08 Z M56.38,1.3 L56.38,4.11 L52.63,4.11 L52.63,20.99 L56.38,20.99 L56.38,23.8 L52.63,23.8 L52.63,43.49 L56.38,43.49 L56.38,46.3 L48.88,46.3 L48.88,1.3 L56.38,1.3 Z M59.25,41.61 L63.94,41.61 L63.94,46.3 L59.25,46.3 L59.25,41.61 Z M79,5.52 L79,42.08 C79,42.9 78.85,43.6066667 78.55,44.2 C78.2433333,44.8 77.8366667,45.2933333 77.33,45.68 C76.8233333,46.0733333 76.2466667,46.3633333 75.6,46.55 C74.9533333,46.7366667 74.29,46.83 73.61,46.83 C72.89,46.83 72.1766667,46.7266667 71.47,46.52 C70.77,46.3133333 70.1466667,46.01 69.6,45.61 C69.0533333,45.21 68.6066667,44.7133333 68.26,44.12 C67.92,43.52 67.75,42.84 67.75,42.08 L67.75,5.52 C67.75,4.77333333 67.92,4.11333333 68.26,3.54 C68.6066667,2.96666667 69.0566667,2.48333333 69.61,2.09 C70.17,1.69666667 70.8,1.4 71.5,1.2 C72.2,0.993333333 72.9133333,0.89 73.64,0.89 C74.32,0.89 74.9833333,0.983333333 75.63,1.17 C76.2766667,1.35666667 76.8466667,1.64 77.34,2.02 C77.84,2.4 78.2433333,2.88333333 78.55,3.47 C78.85,4.05666667 79,4.74 79,5.52 Z M75.25,42.08 L75.25,5.52 C75.25,4.85333333 75.09,4.38 74.77,4.1 C74.4433333,3.81333333 74.0666667,3.67 73.64,3.67 C73.3866667,3.67 73.1333333,3.71333333 72.88,3.8 C72.6266667,3.89333333 72.3966667,4.02 72.19,4.18 C71.9833333,4.34666667 71.8166667,4.54333333 71.69,4.77 C71.5633333,4.99666667 71.5,5.24666667 71.5,5.52 L71.5,42.08 C71.5,42.3533333 71.5633333,42.6066667 71.69,42.84 C71.8166667,43.0733333 71.9833333,43.27 72.19,43.43 C72.3966667,43.5833333 72.62,43.7033333 72.86,43.79 C73.1066667,43.8833333 73.3566667,43.93 73.61,43.93 C74.0366667,43.93 74.4166667,43.7866667 74.75,43.5 C75.0833333,43.22 75.25,42.7466667 75.25,42.08 Z M94.06,5.05 L94.06,20.05 C94.06,20.99 93.8266667,21.7133333 93.36,22.22 C92.8933333,22.7266667 92.19,23.0866667 91.25,23.3 C92.19,23.5533333 92.8933333,23.9333333 93.36,24.44 C93.8266667,24.9533333 94.06,25.6766667 94.06,26.61 L94.06,46.3 L90.31,46.3 L90.31,26.61 C90.31,26.1433333 90.2533333,25.7833333 90.14,25.53 C90.02,25.2766667 89.8433333,25.09 89.61,24.97 C89.3766667,24.85 89.0833333,24.7833333 88.73,24.77 C88.3766667,24.75 87.9666667,24.74 87.5,24.74 L87.5,46.3 L83.75,46.3 L83.75,1.3 L87.97,1.3 C89.2366667,1.3 90.3266667,1.40333333 91.24,1.61 C92.1466667,1.81 92.8433333,2.17 93.33,2.69 C93.8166667,3.21 94.06,3.99666667 94.06,5.05 Z M90.31,20.05 L90.31,5.99 C90.31,5.51666667 90.2533333,5.15333333 90.14,4.9 C90.02,4.64666667 89.8433333,4.46333333 89.61,4.35 C89.3766667,4.23 89.0833333,4.16 88.73,4.14 C88.3766667,4.12 87.9666667,4.11 87.5,4.11 L87.5,21.92 C87.9666667,21.92 88.3766667,21.91 88.73,21.89 C89.0833333,21.8766667 89.3766667,21.81 89.61,21.69 C89.8433333,21.57 90.02,21.3833333 90.14,21.13 C90.2533333,20.8766667 90.31,20.5166667 90.31,20.05 Z M102.56,5.02 L102.56,42.08 C102.56,42.78 102.706667,43.2666667 103,43.54 C103.293333,43.82 103.616667,43.96 103.97,43.96 C104.323333,43.96 104.646667,43.82 104.94,43.54 C105.233333,43.2666667 105.38,42.78 105.38,42.08 L105.38,26.61 L104.44,26.61 L104.44,23.8 L109.13,23.8 L109.13,42.08 C109.13,42.9 108.983333,43.6066667 108.69,44.2 C108.396667,44.8 108.003333,45.29 107.51,45.67 C107.023333,46.05 106.473333,46.3266667 105.86,46.5 C105.246667,46.68 104.616667,46.77 103.97,46.77 C103.323333,46.77 102.693333,46.68 102.08,46.5 C101.466667,46.3266667 100.913333,46.05 100.42,45.67 C99.9333333,45.29 99.5433333,44.8 99.25,44.2 C98.9566667,43.6066667 98.81,42.9 98.81,42.08 L98.81,5.05 C98.81,4.23 98.9566667,3.52 99.25,2.92 C99.5433333,2.32666667 99.9333333,1.84 100.42,1.46 C100.913333,1.08 101.466667,0.803333333 102.08,0.63 C102.693333,0.45 103.323333,0.36 103.97,0.36 C104.616667,0.36 105.246667,0.45 105.86,0.63 C106.473333,0.803333333 107.023333,1.08 107.51,1.46 C108.003333,1.84 108.396667,2.32333333 108.69,2.91 C108.983333,3.49666667 109.13,4.2 109.13,5.02 L109.13,20.05 L105.38,20.05 L105.38,5.02 C105.38,4.31333333 105.233333,3.83 104.94,3.57 C104.646667,3.30333333 104.323333,3.17 103.97,3.17 C103.616667,3.17 103.293333,3.30333333 103,3.57 C102.706667,3.83 102.56,4.31333333 102.56,5.02 Z" id="Shape"></path>
            </g>
        </g>
    </g>
</svg>