<?xml version="1.0" encoding="UTF-8"?>
<svg width="304px" height="26px" viewBox="0 0 304 26" version="1.1" xmlns="http://www.w3.org/2000/svg" xmlns:xlink="http://www.w3.org/1999/xlink">
    <!-- Generator: Sketch 52.4 (67378) - http://www.bohemiancoding.com/sketch -->
    <title>@Copyright Blussuvol</title>
    <desc>Created with Sketch.</desc>
    <g id="Page-1" stroke="none" stroke-width="1" fill="none" fill-rule="evenodd">
        <path d="M18.3,8.625 C18.3,9.5250045 18.1916677,10.3666627 17.975,11.15 C17.7583322,11.9333373 17.4458354,12.6083305 17.0375,13.175 C16.6291646,13.7416695 16.1208364,14.1874984 15.5125,14.5125 C14.9041636,14.8375016 14.2083372,15 13.425,15 C12.7916635,15 12.2708354,14.8250018 11.8625,14.475 C11.4541646,14.1249982 11.2999995,13.5583373 11.4,12.775 L11.35,12.775 C11.216666,13.0250013 11.0458344,13.283332 10.8375,13.55 C10.6291656,13.816668 10.3833347,14.0541656 10.1,14.2625 C9.81666525,14.4708344 9.49583512,14.6458326 9.1375,14.7875 C8.77916487,14.9291674 8.39166875,15 7.975,15 C7.4749975,15 7.04583512,14.9083342 6.6875,14.725 C6.32916487,14.5416657 6.0333345,14.3041681 5.8,14.0125 C5.5666655,13.7208319 5.39583387,13.3833353 5.2875,13 C5.17916612,12.6166647 5.125,12.225002 5.125,11.825 C5.125,11.091663 5.2416655,10.3333372 5.475,9.55 C5.7083345,8.76666275 6.0416645,8.05000325 6.475,7.4 C6.9083355,6.74999675 7.43333025,6.21666875 8.05,5.8 C8.66666975,5.38333125 9.34999625,5.175 10.1,5.175 C10.8666705,5.175 11.4708311,5.37916462 11.9125,5.7875 C12.3541689,6.19583538 12.6166662,6.7499965 12.7,7.45 L12.8,7.45 L13.3,5.625 L13.825,5.625 L12.125,11.55 C12.058333,11.7833345 12.0000002,12.0416652 11.95,12.325 C11.8999997,12.6083347 11.875,12.849999 11.875,13.05 C11.875,13.583336 12.0249985,13.9583323 12.325,14.175 C12.6250015,14.3916678 12.9916645,14.5 13.425,14.5 C14.1916705,14.5 14.8499972,14.333335 15.4,14 C15.9500027,13.666665 16.3999982,13.2250027 16.75,12.675 C17.1000017,12.1249972 17.3583325,11.5000035 17.525,10.8 C17.6916675,10.0999965 17.775,9.37500375 17.775,8.625 C17.775,7.57499475 17.5708354,6.60417112 17.1625,5.7125 C16.7541646,4.82082888 16.1875036,4.04583662 15.4625,3.3875 C14.7374964,2.72916337 13.8833382,2.2166685 12.9,1.85 C11.9166617,1.4833315 10.8500057,1.3 9.7,1.3 C8.433327,1.3 7.27083862,1.54166425 6.2125,2.025 C5.15416137,2.50833575 4.2416705,3.15832925 3.475,3.975 C2.7083295,4.79167075 2.1083355,5.733328 1.675,6.8 C1.2416645,7.866672 1.025,8.97499425 1.025,10.125 C1.025,11.3416727 1.23749787,12.4874946 1.6625,13.5625 C2.08750212,14.6375054 2.68749612,15.5791626 3.4625,16.3875 C4.23750387,17.1958374 5.16666125,17.833331 6.25,18.3 C7.33333875,18.766669 8.5249935,19 9.825,19 C11.2583405,19 12.5874939,18.6875031 13.8125,18.0625 C15.0375061,17.4374969 16.0583292,16.6416715 16.875,15.675 L17.25,16 C16.3499955,17.066672 15.266673,17.9166635 14,18.55 C12.733327,19.1833365 11.3416742,19.5 9.825,19.5 C8.424993,19.5 7.15000575,19.2541691 6,18.7625 C4.84999425,18.2708309 3.86667075,17.6000042 3.05,16.75 C2.23332925,15.8999958 1.60000225,14.908339 1.15,13.775 C0.69999775,12.641661 0.475,11.4250065 0.475,10.125 C0.475,8.8249935 0.712497625,7.608339 1.1875,6.475 C1.66250237,5.341661 2.3166625,4.35417088 3.15,3.5125 C3.9833375,2.67082913 4.95832775,2.00833575 6.075,1.525 C7.19167225,1.04166425 8.3999935,0.8 9.7,0.8 C10.9500062,0.8 12.0999947,0.995831375 13.15,1.3875 C14.2000052,1.77916863 15.1083295,2.3249965 15.875,3.025 C16.6416705,3.7250035 17.2374979,4.55416187 17.6625,5.5125 C18.0875021,6.47083813 18.3,7.50832775 18.3,8.625 Z M12.375,8.2 C12.375,7.866665 12.3291671,7.54583487 12.2375,7.2375 C12.1458329,6.92916512 12.0083342,6.6583345 11.825,6.425 C11.6416657,6.1916655 11.4083347,6.008334 11.125,5.875 C10.8416652,5.741666 10.500002,5.675 10.1,5.675 C9.3999965,5.675 8.77500275,5.874998 8.225,6.275 C7.67499725,6.675002 7.21250187,7.17916363 6.8375,7.7875 C6.46249812,8.39583637 6.175001,9.06249638 5.975,9.7875 C5.774999,10.5125036 5.675,11.1999968 5.675,11.85 C5.675,12.6000037 5.87083137,13.2291641 6.2625,13.7375 C6.65416862,14.2458359 7.2666625,14.5 8.1,14.5 C8.8000035,14.5 9.416664,14.2541691 9.95,13.7625 C10.483336,13.2708309 10.9291649,12.6875034 11.2875,12.0125 C11.6458351,11.3374966 11.9166657,10.6458369 12.1,9.9375 C12.2833342,9.22916313 12.375,8.65000225 12.375,8.2 Z M36.45,16.825 C35.6999962,17.7250045 34.7541724,18.3958311 33.6125,18.8375 C32.4708276,19.2791689 31.3083392,19.5 30.125,19.5 C28.79166,19.5 27.5750055,19.266669 26.475,18.8 C25.3749945,18.333331 24.425004,17.6875041 23.625,16.8625 C22.824996,16.0374959 22.2041689,15.0500057 21.7625,13.9 C21.3208311,12.7499942 21.1,11.5000068 21.1,10.15 C21.1,8.79999325 21.3208311,7.55000575 21.7625,6.4 C22.2041689,5.24999425 22.824996,4.26250413 23.625,3.4375 C24.425004,2.61249587 25.3791611,1.966669 26.4875,1.5 C27.5958389,1.033331 28.8083267,0.8 30.125,0.8 C31.2250055,0.8 32.2958281,0.987498125 33.3375,1.3625 C34.3791719,1.73750188 35.266663,2.3083295 36,3.075 L35.65,3.475 C35.2999982,3.1083315 34.9041689,2.78750137 34.4625,2.5125 C34.0208311,2.23749863 33.5541691,2.00833425 33.0625,1.825 C32.5708309,1.64166575 32.0750025,1.50833375 31.575,1.425 C31.0749975,1.34166625 30.591669,1.3 30.125,1.3 C28.858327,1.3 27.7041719,1.52916437 26.6625,1.9875 C25.6208281,2.44583562 24.7291704,3.074996 23.9875,3.875 C23.2458296,4.675004 22.6708354,5.61249463 22.2625,6.6875 C21.8541646,7.76250537 21.65,8.9166605 21.65,10.15 C21.65,11.3833395 21.849998,12.5374946 22.25,13.6125 C22.650002,14.6875054 23.2208296,15.624996 23.9625,16.425 C24.7041704,17.225004 25.5958281,17.8541644 26.6375,18.3125 C27.6791719,18.7708356 28.8416602,19 30.125,19 C31.2250055,19 32.3124946,18.7875021 33.3875,18.3625 C34.4625054,17.9374979 35.3499965,17.3000043 36.05,16.45 L36.45,16.825 Z M50.675,13.225 C50.675,14.1250045 50.5291681,14.9499963 50.2375,15.7 C49.9458319,16.4500038 49.533336,17.0958306 49,17.6375 C48.466664,18.1791694 47.8291704,18.5999985 47.0875,18.9 C46.3458296,19.2000015 45.5333377,19.35 44.65,19.35 C43.7666622,19.35 42.958337,19.2000015 42.225,18.9 C41.491663,18.5999985 40.858336,18.1791694 40.325,17.6375 C39.791664,17.0958306 39.3791681,16.4500038 39.0875,15.7 C38.7958319,14.9499963 38.65,14.1250045 38.65,13.225 C38.65,12.3249955 38.7958319,11.5041704 39.0875,10.7625 C39.3791681,10.0208296 39.791664,9.383336 40.325,8.85 C40.858336,8.316664 41.491663,7.9000015 42.225,7.6 C42.958337,7.2999985 43.7666622,7.15 44.65,7.15 C45.5333377,7.15 46.3458296,7.2999985 47.0875,7.6 C47.8291704,7.9000015 48.466664,8.316664 49,8.85 C49.533336,9.383336 49.9458319,10.0208296 50.2375,10.7625 C50.5291681,11.5041704 50.675,12.3249955 50.675,13.225 Z M50.125,13.225 C50.125,12.4583295 50.0000012,11.7333367 49.75,11.05 C49.4999987,10.3666632 49.1375024,9.77083587 48.6625,9.2625 C48.1874976,8.75416412 47.6125034,8.35416813 46.9375,8.0625 C46.2624966,7.77083187 45.5000042,7.625 44.65,7.625 C43.7999957,7.625 43.04167,7.77083187 42.375,8.0625 C41.70833,8.35416813 41.1375024,8.75416412 40.6625,9.2625 C40.1874976,9.77083587 39.8250012,10.3666632 39.575,11.05 C39.3249987,11.7333367 39.2,12.4583295 39.2,13.225 C39.2,14.0083373 39.3249987,14.7416632 39.575,15.425 C39.8250012,16.1083367 40.1874976,16.7041641 40.6625,17.2125 C41.1375024,17.7208359 41.70833,18.1249985 42.375,18.425 C43.04167,18.7250015 43.7999957,18.875 44.65,18.875 C45.5000042,18.875 46.2624966,18.7250015 46.9375,18.425 C47.6125034,18.1249985 48.1874976,17.7208359 48.6625,17.2125 C49.1375024,16.7041641 49.4999987,16.1083367 49.75,15.425 C50.0000012,14.7416632 50.125,14.0083373 50.125,13.225 Z M55.4,10.625 C55.9000025,9.47499425 56.6124954,8.60833625 57.5375,8.025 C58.4625046,7.44166375 59.4749945,7.15 60.575,7.15 C61.4250042,7.15 62.2041631,7.30416512 62.9125,7.6125 C63.6208369,7.92083487 64.2291641,8.34583063 64.7375,8.8875 C65.2458359,9.42916938 65.6374986,10.0749963 65.9125,10.825 C66.1875014,11.5750038 66.325,12.3916623 66.325,13.275 C66.325,14.141671 66.1833347,14.9458296 65.9,15.6875 C65.6166652,16.4291704 65.2208359,17.0708306 64.7125,17.6125 C64.2041641,18.1541694 63.5958369,18.5791651 62.8875,18.8875 C62.1791631,19.1958349 61.4083375,19.35 60.575,19.35 C60.0249972,19.35 59.4875026,19.2750008 58.9625,19.125 C58.4374974,18.9749992 57.9500022,18.7541681 57.5,18.4625 C57.0499977,18.1708319 56.6416685,17.8125021 56.275,17.3875 C55.9083315,16.9624979 55.6166677,16.4666695 55.4,15.9 L55.325,15.9 L55.325,25 L54.775,25 L54.775,7.5 L55.325,7.5 L55.325,10.625 L55.4,10.625 Z M65.775,13.275 C65.775,12.5249963 65.6541679,11.8083368 65.4125,11.125 C65.1708321,10.4416632 64.8250023,9.84166925 64.375,9.325 C63.9249977,8.80833075 63.3791699,8.39583487 62.7375,8.0875 C62.0958301,7.77916513 61.375004,7.625 60.575,7.625 C59.8083295,7.625 59.1041699,7.7749985 58.4625,8.075 C57.8208301,8.3750015 57.266669,8.77916413 56.8,9.2875 C56.333331,9.79583588 55.966668,10.3916633 55.7,11.075 C55.433332,11.7583368 55.3,12.4833295 55.3,13.25 C55.3,14.0166705 55.433332,14.7416632 55.7,15.425 C55.966668,16.1083367 56.333331,16.7041641 56.8,17.2125 C57.266669,17.7208359 57.8208301,18.1249985 58.4625,18.425 C59.1041699,18.7250015 59.8083295,18.875 60.575,18.875 C61.375004,18.875 62.0958301,18.7250015 62.7375,18.425 C63.3791699,18.1249985 63.9249977,17.7208359 64.375,17.2125 C64.8250023,16.7041641 65.1708321,16.1083367 65.4125,15.425 C65.6541679,14.7416632 65.775,14.0250037 65.775,13.275 Z M72.275,22.8 C72.008332,23.5166703 71.6541689,24.0708314 71.2125,24.4625 C70.7708311,24.8541686 70.2000035,25.05 69.5,25.05 C69.3499992,25.05 69.175001,25.0333335 68.975,25 C68.774999,24.9666665 68.608334,24.9250002 68.475,24.875 L68.625,24.4 C68.7250005,24.4333335 68.8624991,24.4666665 69.0375,24.5 C69.2125009,24.5333335 69.3833325,24.55 69.55,24.55 C69.9000018,24.55 70.2041654,24.483334 70.4625,24.35 C70.7208346,24.216666 70.9416657,24.0458344 71.125,23.8375 C71.3083342,23.6291656 71.4624994,23.391668 71.5875,23.125 C71.7125006,22.858332 71.8249995,22.591668 71.925,22.325 L73.025,19.325 L68.475,7.5 L69.075,7.5 L73.3,18.7 L77.375,7.5 L77.975,7.5 L72.275,22.8 Z M81.775,10.525 C82.108335,9.324994 82.641663,8.46250263 83.375,7.9375 C84.108337,7.41249737 84.8999958,7.15 85.75,7.15 L85.975,7.15 C86.041667,7.15 86.1166662,7.15833325 86.2,7.175 L86.2,7.65 C86.133333,7.63333325 86.0708336,7.625 86.0125,7.625 L85.875,7.625 C85.141663,7.625 84.5166693,7.78749837 84,8.1125 C83.4833307,8.43750162 83.058335,8.86249737 82.725,9.3875 C82.391665,9.91250263 82.1458341,10.4958301 81.9875,11.1375 C81.8291659,11.7791699 81.75,12.4166635 81.75,13.05 L81.75,19 L81.2,19 L81.2,10.4 C81.2,10.2166658 81.1958334,9.991668 81.1875,9.725 C81.1791666,9.458332 81.1708334,9.18750138 81.1625,8.9125 C81.1541666,8.63749862 81.1416668,8.37500125 81.125,8.125 C81.1083332,7.87499875 81.0916668,7.6666675 81.075,7.5 L81.625,7.5 C81.6416668,7.6666675 81.6541666,7.87499875 81.6625,8.125 C81.6708334,8.37500125 81.6791666,8.64583187 81.6875,8.9375 C81.6958334,9.22916813 81.7041666,9.51249862 81.7125,9.7875 C81.7208334,10.0625014 81.725,10.3083322 81.725,10.525 L81.775,10.525 Z M89.325,3.175 C89.1749992,3.175 89.0416672,3.11666725 88.925,3 C88.8083327,2.88333275 88.75,2.725001 88.75,2.525 C88.75,2.34166575 88.8083327,2.19166725 88.925,2.075 C89.0416672,1.95833275 89.1749992,1.9 89.325,1.9 C89.4750007,1.9 89.6083327,1.95833275 89.725,2.075 C89.8416673,2.19166725 89.9,2.34166575 89.9,2.525 C89.9,2.725001 89.8375006,2.88333275 89.7125,3 C89.5874994,3.11666725 89.458334,3.175 89.325,3.175 Z M89.05,19 L89.05,7.5 L89.6,7.5 L89.6,19 L89.05,19 Z M104.7,15.9 L104.625,15.9 C104.408332,16.4666695 104.116669,16.9624979 103.75,17.3875 C103.383331,17.8125021 102.975002,18.1708319 102.525,18.4625 C102.074998,18.7541681 101.587503,18.9749992 101.0625,19.125 C100.537497,19.2750008 100.000003,19.35 99.45,19.35 C98.6166625,19.35 97.8458369,19.1958349 97.1375,18.8875 C96.4291631,18.5791651 95.8208359,18.1541694 95.3125,17.6125 C94.8041641,17.0708306 94.4083347,16.4291704 94.125,15.6875 C93.8416653,14.9458296 93.7,14.141671 93.7,13.275 C93.7,12.408329 93.8416653,11.6000037 94.125,10.85 C94.4083347,10.0999963 94.8041641,9.45000275 95.3125,8.9 C95.8208359,8.34999725 96.4291631,7.92083487 97.1375,7.6125 C97.8458369,7.30416512 98.6166625,7.15 99.45,7.15 C100.550005,7.15 101.562495,7.44166375 102.4875,8.025 C103.412505,8.60833625 104.124998,9.47499425 104.625,10.625 L104.7,10.625 L104.7,7.5 L105.25,7.5 L105.25,18.35 C105.25,19.2666713 105.154168,20.1416625 104.9625,20.975 C104.770832,21.8083375 104.454169,22.5416635 104.0125,23.175 C103.570831,23.8083365 102.987504,24.3124981 102.2625,24.6875 C101.537496,25.0625019 100.641672,25.25 99.575,25.25 C98.4916612,25.25 97.5250042,25.0625019 96.675,24.6875 C95.8249957,24.3124981 95.100003,23.7833367 94.5,23.1 L94.875,22.725 C95.5083365,23.4416703 96.2291626,23.9624984 97.0375,24.2875 C97.8458374,24.6125016 98.6916622,24.775 99.575,24.775 C100.575005,24.775 101.40833,24.5916685 102.075,24.225 C102.74167,23.8583315 103.266665,23.375003 103.65,22.775 C104.033335,22.174997 104.304166,21.4875039 104.4625,20.7125 C104.620834,19.9374961 104.7,19.1333375 104.7,18.3 L104.7,15.9 Z M94.25,13.275 C94.25,14.0250037 94.3708321,14.7416632 94.6125,15.425 C94.8541679,16.1083367 95.1999977,16.7083308 95.65,17.225 C96.1000022,17.7416692 96.6458301,18.1499985 97.2875,18.45 C97.9291699,18.7500015 98.649996,18.9 99.45,18.9 C100.21667,18.9 100.92083,18.7500015 101.5625,18.45 C102.20417,18.1499985 102.758331,17.7416692 103.225,17.225 C103.691669,16.7083308 104.058332,16.1083367 104.325,15.425 C104.591668,14.7416632 104.725,14.0166705 104.725,13.25 C104.725,12.4833295 104.591668,11.7583368 104.325,11.075 C104.058332,10.3916633 103.691669,9.79583588 103.225,9.2875 C102.758331,8.77916413 102.20417,8.3750015 101.5625,8.075 C100.92083,7.7749985 100.21667,7.625 99.45,7.625 C98.649996,7.625 97.9291699,7.77916513 97.2875,8.0875 C96.6458301,8.39583487 96.1000022,8.80833075 95.65,9.325 C95.1999977,9.84166925 94.8541679,10.4416632 94.6125,11.125 C94.3708321,11.8083368 94.25,12.5249963 94.25,13.275 Z M110.95,10.525 C111.116668,9.991664 111.354165,9.51666875 111.6625,9.1 C111.970835,8.68333125 112.324998,8.32916813 112.725,8.0375 C113.125002,7.74583188 113.558331,7.52500075 114.025,7.375 C114.491669,7.22499925 114.974997,7.15 115.475,7.15 C116.275004,7.15 116.941664,7.29166525 117.475,7.575 C118.008336,7.85833475 118.433332,8.233331 118.75,8.7 C119.066668,9.166669 119.291666,9.69166375 119.425,10.275 C119.558334,10.8583362 119.625,11.449997 119.625,12.05 L119.625,19 L119.075,19 L119.075,12.1 C119.075,11.633331 119.025001,11.133336 118.925,10.6 C118.824999,10.066664 118.637501,9.5833355 118.3625,9.15 C118.087499,8.7166645 117.716669,8.35416813 117.25,8.0625 C116.783331,7.77083187 116.19167,7.625 115.475,7.625 C114.841663,7.625 114.245836,7.75416538 113.6875,8.0125 C113.129164,8.27083463 112.645835,8.64166425 112.2375,9.125 C111.829165,9.60833575 111.504168,10.1958299 111.2625,10.8875 C111.020832,11.5791701 110.9,12.3666622 110.9,13.25 L110.9,19 L110.35,19 L110.35,0.1 L110.9,0.1 L110.9,10.525 L110.95,10.525 Z M129.025,19.025 C128.824999,19.1083337 128.591668,19.1749997 128.325,19.225 C128.058332,19.2750003 127.800001,19.3 127.55,19.3 C126.649996,19.3 126.004169,19.0458359 125.6125,18.5375 C125.220831,18.0291641 125.025,17.3916705 125.025,16.625 L125.025,7.975 L122.525,7.975 L122.525,7.5 L125,7.5 L125,4.125 L125.575,4.125 L125.575,7.5 L128.95,7.5 L128.95,7.975 L125.575,7.975 L125.575,16.625 C125.575,17.4083372 125.766665,17.9708316 126.15,18.3125 C126.533335,18.6541684 127.041664,18.825 127.675,18.825 C128.141669,18.825 128.566665,18.7500008 128.95,18.6 L129.025,19.025 Z M149.65,14.275 C149.65,15.2250047 149.470835,16.0041636 149.1125,16.6125 C148.754165,17.2208364 148.295836,17.6999983 147.7375,18.05 C147.179164,18.4000018 146.562503,18.6458326 145.8875,18.7875 C145.212497,18.9291674 144.56667,19 143.95,19 L138.525,19 L138.525,1.3 L143.35,1.3 C144.01667,1.3 144.679163,1.366666 145.3375,1.5 C145.995837,1.633334 146.583331,1.85833175 147.1,2.175 C147.616669,2.49166825 148.033332,2.916664 148.35,3.45 C148.666668,3.983336 148.825,4.65832925 148.825,5.475 C148.825,6.1083365 148.725001,6.658331 148.525,7.125 C148.324999,7.591669 148.054168,7.991665 147.7125,8.325 C147.370832,8.658335 146.983336,8.92916562 146.55,9.1375 C146.116665,9.34583437 145.675002,9.4999995 145.225,9.6 L145.225,9.65 C145.675002,9.70000025 146.158331,9.82083238 146.675,10.0125 C147.191669,10.2041676 147.670831,10.4833315 148.1125,10.85 C148.554169,11.2166685 148.920832,11.6833305 149.2125,12.25 C149.504168,12.8166695 149.65,13.4916627 149.65,14.275 Z M148.275,5.55 C148.275,4.83332975 148.133335,4.23333575 147.85,3.75 C147.566665,3.26666425 147.191669,2.88333475 146.725,2.6 C146.258331,2.31666525 145.720836,2.11250062 145.1125,1.9875 C144.504164,1.86249938 143.86667,1.8 143.2,1.8 L139.075,1.8 L139.075,9.425 L143.325,9.425 C143.925003,9.425 144.52083,9.35000075 145.1125,9.2 C145.70417,9.04999925 146.233331,8.82083488 146.7,8.5125 C147.166669,8.20416512 147.545832,7.80416912 147.8375,7.3125 C148.129168,6.82083088 148.275,6.23333675 148.275,5.55 Z M149.1,14.35 C149.1,13.549996 148.937502,12.8666695 148.6125,12.3 C148.287498,11.7333305 147.875002,11.2750018 147.375,10.925 C146.874998,10.5749983 146.325003,10.3208341 145.725,10.1625 C145.124997,10.0041659 144.54167,9.925 143.975,9.925 L139.075,9.925 L139.075,18.5 L143.7,18.5 C144.46667,18.5 145.18333,18.4208341 145.85,18.2625 C146.51667,18.1041659 147.087498,17.858335 147.5625,17.525 C148.037502,17.191665 148.412499,16.7625026 148.6875,16.2375 C148.962501,15.7124974 149.1,15.083337 149.1,14.35 Z M153.725,19 L153.725,0.1 L154.275,0.1 L154.275,19 L153.725,19 Z M167.875,15.975 C167.691666,16.508336 167.445835,16.9874979 167.1375,17.4125 C166.829165,17.8375021 166.475002,18.1916653 166.075,18.475 C165.674998,18.7583348 165.241669,18.9749992 164.775,19.125 C164.308331,19.2750008 163.825003,19.35 163.325,19.35 C162.524996,19.35 161.858336,19.2083348 161.325,18.925 C160.791664,18.6416653 160.366668,18.266669 160.05,17.8 C159.733332,17.333331 159.508334,16.8083363 159.375,16.225 C159.241666,15.6416638 159.175,15.050003 159.175,14.45 L159.175,7.5 L159.725,7.5 L159.725,14.4 C159.725,14.8833358 159.775,15.3874974 159.875,15.9125 C159.975001,16.4375026 160.162499,16.9166645 160.4375,17.35 C160.712501,17.7833355 161.079164,18.1458319 161.5375,18.4375 C161.995836,18.7291681 162.591663,18.875 163.325,18.875 C163.958337,18.875 164.554164,18.7458346 165.1125,18.4875 C165.670836,18.2291654 166.154165,17.8583357 166.5625,17.375 C166.970835,16.8916643 167.295832,16.3041701 167.5375,15.6125 C167.779168,14.9208299 167.9,14.1333378 167.9,13.25 L167.9,7.5 L168.45,7.5 L168.45,16.1 C168.45,16.2833342 168.454167,16.508332 168.4625,16.775 C168.470833,17.041668 168.479167,17.3124986 168.4875,17.5875 C168.495833,17.8625014 168.508333,18.1249987 168.525,18.375 C168.541667,18.6250013 168.558333,18.8333325 168.575,19 L168.025,19 C168.008333,18.8333325 167.995833,18.6250013 167.9875,18.375 C167.979167,18.1249987 167.970833,17.8541681 167.9625,17.5625 C167.954167,17.2708319 167.945833,16.9875014 167.9375,16.7125 C167.929167,16.4374986 167.925,16.1916678 167.925,15.975 L167.875,15.975 Z M180.15,16 C180.15,16.5166693 180.050001,16.9791646 179.85,17.3875 C179.649999,17.7958354 179.379168,18.1416653 179.0375,18.425 C178.695832,18.7083348 178.300002,18.9249992 177.85,19.075 C177.399998,19.2250007 176.916669,19.3 176.4,19.3 C175.549996,19.3 174.77917,19.1375016 174.0875,18.8125 C173.39583,18.4874984 172.825002,18.0083365 172.375,17.375 L172.825,17.075 C173.658338,18.2416725 174.858326,18.825 176.425,18.825 C176.791669,18.825 177.162498,18.7666673 177.5375,18.65 C177.912502,18.5333327 178.254165,18.3583345 178.5625,18.125 C178.870835,17.8916655 179.120832,17.6000017 179.3125,17.25 C179.504168,16.8999983 179.6,16.5000023 179.6,16.05 C179.6,15.516664 179.479168,15.083335 179.2375,14.75 C178.995832,14.416665 178.691668,14.150001 178.325,13.95 C177.958332,13.749999 177.554169,13.5875006 177.1125,13.4625 C176.670831,13.3374994 176.258335,13.2250005 175.875,13.125 C175.458331,13.0083328 175.066669,12.8791674 174.7,12.7375 C174.333332,12.5958326 174.012501,12.4125011 173.7375,12.1875 C173.462499,11.9624989 173.245834,11.683335 173.0875,11.35 C172.929166,11.016665 172.85,10.6000025 172.85,10.1 C172.85,9.5999975 172.949999,9.1666685 173.15,8.8 C173.350001,8.4333315 173.616665,8.12916788 173.95,7.8875 C174.283335,7.64583212 174.662498,7.46250063 175.0875,7.3375 C175.512502,7.21249937 175.941665,7.15 176.375,7.15 C177.941675,7.15 179.116663,7.70832775 179.9,8.825 L179.425,9.1 C179.041665,8.5999975 178.608336,8.22916787 178.125,7.9875 C177.641664,7.74583212 177.058337,7.625 176.375,7.625 C176.058332,7.625 175.725002,7.66666625 175.375,7.75 C175.024998,7.83333375 174.704168,7.97083237 174.4125,8.1625 C174.120832,8.35416763 173.879168,8.60833175 173.6875,8.925 C173.495832,9.24166825 173.4,9.62499775 173.4,10.075 C173.4,10.5750025 173.479166,10.9749985 173.6375,11.275 C173.795834,11.5750015 174.016665,11.8166657 174.3,12 C174.583335,12.1833343 174.924998,12.3374994 175.325,12.4625 C175.725002,12.5875006 176.166664,12.7083328 176.65,12.825 C177.100002,12.9416673 177.537498,13.0791659 177.9625,13.2375 C178.387502,13.3958341 178.762498,13.5916655 179.0875,13.825 C179.412502,14.0583345 179.670832,14.3499982 179.8625,14.7 C180.054168,15.0500017 180.15,15.4833307 180.15,16 Z M190.525,16 C190.525,16.5166693 190.425001,16.9791646 190.225,17.3875 C190.024999,17.7958354 189.754168,18.1416653 189.4125,18.425 C189.070832,18.7083348 188.675002,18.9249992 188.225,19.075 C187.774998,19.2250007 187.291669,19.3 186.775,19.3 C185.924996,19.3 185.15417,19.1375016 184.4625,18.8125 C183.77083,18.4874984 183.200002,18.0083365 182.75,17.375 L183.2,17.075 C184.033338,18.2416725 185.233326,18.825 186.8,18.825 C187.166669,18.825 187.537498,18.7666673 187.9125,18.65 C188.287502,18.5333327 188.629165,18.3583345 188.9375,18.125 C189.245835,17.8916655 189.495832,17.6000017 189.6875,17.25 C189.879168,16.8999983 189.975,16.5000023 189.975,16.05 C189.975,15.516664 189.854168,15.083335 189.6125,14.75 C189.370832,14.416665 189.066668,14.150001 188.7,13.95 C188.333332,13.749999 187.929169,13.5875006 187.4875,13.4625 C187.045831,13.3374994 186.633335,13.2250005 186.25,13.125 C185.833331,13.0083328 185.441668,12.8791674 185.075,12.7375 C184.708332,12.5958326 184.387501,12.4125011 184.1125,12.1875 C183.837499,11.9624989 183.620834,11.683335 183.4625,11.35 C183.304166,11.016665 183.225,10.6000025 183.225,10.1 C183.225,9.5999975 183.324999,9.1666685 183.525,8.8 C183.725001,8.4333315 183.991665,8.12916788 184.325,7.8875 C184.658335,7.64583212 185.037498,7.46250063 185.4625,7.3375 C185.887502,7.21249937 186.316665,7.15 186.75,7.15 C188.316675,7.15 189.491663,7.70832775 190.275,8.825 L189.8,9.1 C189.416665,8.5999975 188.983336,8.22916787 188.5,7.9875 C188.016664,7.74583212 187.433337,7.625 186.75,7.625 C186.433332,7.625 186.100002,7.66666625 185.75,7.75 C185.399998,7.83333375 185.079168,7.97083237 184.7875,8.1625 C184.495832,8.35416763 184.254168,8.60833175 184.0625,8.925 C183.870832,9.24166825 183.775,9.62499775 183.775,10.075 C183.775,10.5750025 183.854166,10.9749985 184.0125,11.275 C184.170834,11.5750015 184.391665,11.8166657 184.675,12 C184.958335,12.1833343 185.299998,12.3374994 185.7,12.4625 C186.100002,12.5875006 186.541664,12.7083328 187.025,12.825 C187.475002,12.9416673 187.912498,13.0791659 188.3375,13.2375 C188.762502,13.3958341 189.137498,13.5916655 189.4625,13.825 C189.787502,14.0583345 190.045832,14.3499982 190.2375,14.7 C190.429168,15.0500017 190.525,15.4833307 190.525,16 Z M202.925,15.975 C202.741666,16.508336 202.495835,16.9874979 202.1875,17.4125 C201.879165,17.8375021 201.525002,18.1916653 201.125,18.475 C200.724998,18.7583348 200.291669,18.9749992 199.825,19.125 C199.358331,19.2750008 198.875003,19.35 198.375,19.35 C197.574996,19.35 196.908336,19.2083348 196.375,18.925 C195.841664,18.6416653 195.416668,18.266669 195.1,17.8 C194.783332,17.333331 194.558334,16.8083363 194.425,16.225 C194.291666,15.6416638 194.225,15.050003 194.225,14.45 L194.225,7.5 L194.775,7.5 L194.775,14.4 C194.775,14.8833358 194.825,15.3874974 194.925,15.9125 C195.025001,16.4375026 195.212499,16.9166645 195.4875,17.35 C195.762501,17.7833355 196.129164,18.1458319 196.5875,18.4375 C197.045836,18.7291681 197.641663,18.875 198.375,18.875 C199.008337,18.875 199.604164,18.7458346 200.1625,18.4875 C200.720836,18.2291654 201.204165,17.8583357 201.6125,17.375 C202.020835,16.8916643 202.345832,16.3041701 202.5875,15.6125 C202.829168,14.9208299 202.95,14.1333378 202.95,13.25 L202.95,7.5 L203.5,7.5 L203.5,16.1 C203.5,16.2833342 203.504167,16.508332 203.5125,16.775 C203.520833,17.041668 203.529167,17.3124986 203.5375,17.5875 C203.545833,17.8625014 203.558333,18.1249987 203.575,18.375 C203.591667,18.6250013 203.608333,18.8333325 203.625,19 L203.075,19 C203.058333,18.8333325 203.045833,18.6250013 203.0375,18.375 C203.029167,18.1249987 203.020833,17.8541681 203.0125,17.5625 C203.004167,17.2708319 202.995833,16.9875014 202.9875,16.7125 C202.979167,16.4374986 202.975,16.1916678 202.975,15.975 L202.925,15.975 Z M212.025,19 L211.3,19 L206.775,7.5 L207.375,7.5 L211.65,18.45 L211.7,18.45 L215.825,7.5 L216.425,7.5 L212.025,19 Z M230.6,13.225 C230.6,14.1250045 230.454168,14.9499963 230.1625,15.7 C229.870832,16.4500038 229.458336,17.0958306 228.925,17.6375 C228.391664,18.1791694 227.75417,18.5999985 227.0125,18.9 C226.27083,19.2000015 225.458338,19.35 224.575,19.35 C223.691662,19.35 222.883337,19.2000015 222.15,18.9 C221.416663,18.5999985 220.783336,18.1791694 220.25,17.6375 C219.716664,17.0958306 219.304168,16.4500038 219.0125,15.7 C218.720832,14.9499963 218.575,14.1250045 218.575,13.225 C218.575,12.3249955 218.720832,11.5041704 219.0125,10.7625 C219.304168,10.0208296 219.716664,9.383336 220.25,8.85 C220.783336,8.316664 221.416663,7.9000015 222.15,7.6 C222.883337,7.2999985 223.691662,7.15 224.575,7.15 C225.458338,7.15 226.27083,7.2999985 227.0125,7.6 C227.75417,7.9000015 228.391664,8.316664 228.925,8.85 C229.458336,9.383336 229.870832,10.0208296 230.1625,10.7625 C230.454168,11.5041704 230.6,12.3249955 230.6,13.225 Z M230.05,13.225 C230.05,12.4583295 229.925001,11.7333367 229.675,11.05 C229.424999,10.3666632 229.062502,9.77083587 228.5875,9.2625 C228.112498,8.75416412 227.537503,8.35416813 226.8625,8.0625 C226.187497,7.77083187 225.425004,7.625 224.575,7.625 C223.724996,7.625 222.96667,7.77083187 222.3,8.0625 C221.63333,8.35416813 221.062502,8.75416412 220.5875,9.2625 C220.112498,9.77083587 219.750001,10.3666632 219.5,11.05 C219.249999,11.7333367 219.125,12.4583295 219.125,13.225 C219.125,14.0083373 219.249999,14.7416632 219.5,15.425 C219.750001,16.1083367 220.112498,16.7041641 220.5875,17.2125 C221.062502,17.7208359 221.63333,18.1249985 222.3,18.425 C222.96667,18.7250015 223.724996,18.875 224.575,18.875 C225.425004,18.875 226.187497,18.7250015 226.8625,18.425 C227.537503,18.1249985 228.112498,17.7208359 228.5875,17.2125 C229.062502,16.7041641 229.424999,16.1083367 229.675,15.425 C229.925001,14.7416632 230.05,14.0083373 230.05,13.225 Z M234.7,19 L234.7,0.1 L235.25,0.1 L235.25,19 L234.7,19 Z M240.35,19 L240.35,0.1 L240.9,0.1 L240.9,19 L240.35,19 Z M251.275,19 L251.275,18.35 L257.45,11.1 C258.383338,10.0166613 259.124997,9.03333775 259.675,8.15 C260.225003,7.26666225 260.5,6.3750045 260.5,5.475 C260.5,4.85833025 260.400001,4.30416912 260.2,3.8125 C259.999999,3.32083088 259.720835,2.90000175 259.3625,2.55 C259.004165,2.19999825 258.579169,1.93333425 258.0875,1.75 C257.595831,1.56666575 257.066669,1.475 256.5,1.475 C255.533329,1.475 254.683337,1.72916413 253.95,2.2375 C253.216663,2.74583588 252.700002,3.499995 252.4,4.5 L251.875,4.325 C252.191668,3.258328 252.766663,2.43750288 253.6,1.8625 C254.433338,1.28749713 255.399995,1 256.5,1 C257.16667,1 257.779164,1.10833225 258.3375,1.325 C258.895836,1.54166775 259.374998,1.84583137 259.775,2.2375 C260.175002,2.62916862 260.487499,3.08749737 260.7125,3.6125 C260.937501,4.13750263 261.05,4.699997 261.05,5.3 C261.05,5.85000275 260.979167,6.36666425 260.8375,6.85 C260.695833,7.33333575 260.479168,7.82083088 260.1875,8.3125 C259.895832,8.80416912 259.537502,9.32083062 259.1125,9.8625 C258.687498,10.4041694 258.200003,10.9999967 257.65,11.65 L251.85,18.475 L261.2,18.475 L261.2,19 L251.275,19 Z M270.7,19.3 C269.566661,19.3 268.64167,19.0125029 267.925,18.4375 C267.20833,17.8624971 266.650002,17.1333378 266.25,16.25 C265.849998,15.3666622 265.575001,14.3833388 265.425,13.3 C265.274999,12.2166613 265.2,11.1666717 265.2,10.15 C265.2,9.13332825 265.274999,8.08333875 265.425,7 C265.575001,5.91666125 265.849998,4.93333775 266.25,4.05 C266.650002,3.16666225 267.20833,2.43750288 267.925,1.8625 C268.64167,1.28749713 269.566661,1 270.7,1 C271.833339,1 272.75833,1.28749713 273.475,1.8625 C274.19167,2.43750288 274.749998,3.16666225 275.15,4.05 C275.550002,4.93333775 275.824999,5.91666125 275.975,7 C276.125001,8.08333875 276.2,9.13332825 276.2,10.15 C276.2,11.1666717 276.125001,12.2166613 275.975,13.3 C275.824999,14.3833388 275.550002,15.3666622 275.15,16.25 C274.749998,17.1333378 274.19167,17.8624971 273.475,18.4375 C272.75833,19.0125029 271.833339,19.3 270.7,19.3 Z M270.7,1.5 C269.949996,1.5 269.304169,1.65416513 268.7625,1.9625 C268.220831,2.27083487 267.766669,2.67083087 267.4,3.1625 C267.033332,3.65416913 266.741668,4.21249687 266.525,4.8375 C266.308332,5.46250313 266.141667,6.09583013 266.025,6.7375 C265.908333,7.37916988 265.833334,7.999997 265.8,8.6 C265.766667,9.200003 265.75,9.7166645 265.75,10.15 C265.75,10.6000022 265.766667,11.1208304 265.8,11.7125 C265.833334,12.3041696 265.908333,12.9208301 266.025,13.5625 C266.141667,14.2041699 266.308332,14.8374969 266.525,15.4625 C266.741668,16.0875031 267.033332,16.6458309 267.4,17.1375 C267.766669,17.6291691 268.220831,18.0291651 268.7625,18.3375 C269.304169,18.6458349 269.949996,18.8 270.7,18.8 C271.450004,18.8 272.095831,18.6458349 272.6375,18.3375 C273.179169,18.0291651 273.633332,17.6291691 274,17.1375 C274.366669,16.6458309 274.658332,16.0875031 274.875,15.4625 C275.091668,14.8374969 275.258333,14.2041699 275.375,13.5625 C275.491667,12.9208301 275.566667,12.3041696 275.6,11.7125 C275.633334,11.1208304 275.65,10.6000022 275.65,10.15 C275.65,9.7166645 275.633334,9.200003 275.6,8.6 C275.566667,7.999997 275.491667,7.37916988 275.375,6.7375 C275.258333,6.09583013 275.091668,5.46250313 274.875,4.8375 C274.658332,4.21249687 274.366669,3.65416913 274,3.1625 C273.633332,2.67083087 273.179169,2.27083487 272.6375,1.9625 C272.095831,1.65416513 271.450004,1.5 270.7,1.5 Z M284.95,19 L284.95,1.95 L281.6,4.8 L281.275,4.375 L284.95,1.3 L285.5,1.3 L285.5,19 L284.95,19 Z M303.925,14.3 C303.925,15.0666705 303.791668,15.7583302 303.525,16.375 C303.258332,16.9916698 302.895836,17.5166645 302.4375,17.95 C301.979164,18.3833355 301.42917,18.7166655 300.7875,18.95 C300.14583,19.1833345 299.450004,19.3 298.7,19.3 C297.949996,19.3 297.25417,19.1833345 296.6125,18.95 C295.97083,18.7166655 295.420836,18.3833355 294.9625,17.95 C294.504164,17.5166645 294.141668,16.9916698 293.875,16.375 C293.608332,15.7583302 293.475,15.0666705 293.475,14.3 C293.475,13.7833308 293.549999,13.2791691 293.7,12.7875 C293.850001,12.2958309 294.079165,11.8375021 294.3875,11.4125 C294.695835,10.9874979 295.083331,10.6125016 295.55,10.2875 C296.016669,9.96249837 296.566664,9.70833425 297.2,9.525 L297.2,9.475 C296.149995,9.074998 295.379169,8.48750388 294.8875,7.7125 C294.395831,6.93749612 294.15,6.14167075 294.15,5.325 C294.15,4.67499675 294.266666,4.08750263 294.5,3.5625 C294.733335,3.03749737 295.049998,2.58333525 295.45,2.2 C295.850002,1.81666475 296.329164,1.52083437 296.8875,1.3125 C297.445836,1.10416563 298.049997,1 298.7,1 C299.350003,1 299.954164,1.10416563 300.5125,1.3125 C301.070836,1.52083437 301.549998,1.81666475 301.95,2.2 C302.350002,2.58333525 302.666666,3.03749737 302.9,3.5625 C303.133335,4.08750263 303.25,4.67499675 303.25,5.325 C303.25,6.14167075 303.004169,6.94166275 302.5125,7.725 C302.020831,8.50833725 301.250005,9.09166475 300.2,9.475 L300.2,9.525 C300.850003,9.725001 301.412498,9.991665 301.8875,10.325 C302.362502,10.658335 302.749999,11.0333313 303.05,11.45 C303.350002,11.8666687 303.570833,12.3166643 303.7125,12.8 C303.854167,13.2833357 303.925,13.7833308 303.925,14.3 Z M302.725,5.325 C302.725,4.7583305 302.620834,4.23750238 302.4125,3.7625 C302.204166,3.28749763 301.916669,2.87916838 301.55,2.5375 C301.183332,2.19583162 300.758336,1.93333425 300.275,1.75 C299.791664,1.56666575 299.26667,1.475 298.7,1.475 C298.133331,1.475 297.604169,1.56666575 297.1125,1.75 C296.620831,1.93333425 296.195835,2.19583162 295.8375,2.5375 C295.479165,2.87916838 295.195834,3.28749763 294.9875,3.7625 C294.779166,4.23750238 294.675,4.7583305 294.675,5.325 C294.675,5.858336 294.774999,6.36249763 294.975,6.8375 C295.175001,7.31250238 295.454165,7.7333315 295.8125,8.1 C296.170835,8.4666685 296.595831,8.75833225 297.0875,8.975 C297.579169,9.19166775 298.116664,9.3 298.7,9.3 C299.283336,9.3 299.820831,9.19166775 300.3125,8.975 C300.804169,8.75833225 301.229165,8.4666685 301.5875,8.1 C301.945835,7.7333315 302.224999,7.31250238 302.425,6.8375 C302.625001,6.36249763 302.725,5.858336 302.725,5.325 Z M303.375,14.3 C303.375,13.63333 303.254168,13.0208361 303.0125,12.4625 C302.770832,11.9041639 302.437502,11.4208354 302.0125,11.0125 C301.587498,10.6041646 301.09167,10.2875011 300.525,10.0625 C299.958331,9.83749887 299.350003,9.725 298.7,9.725 C298.049997,9.725 297.44167,9.83749887 296.875,10.0625 C296.308331,10.2875011 295.812502,10.6041646 295.3875,11.0125 C294.962498,11.4208354 294.629168,11.9041639 294.3875,12.4625 C294.145832,13.0208361 294.025,13.63333 294.025,14.3 C294.025,14.9333365 294.137499,15.5249973 294.3625,16.075 C294.587501,16.6250028 294.904165,17.1041646 295.3125,17.5125 C295.720835,17.9208354 296.212497,18.2416655 296.7875,18.475 C297.362503,18.7083345 297.999997,18.825 298.7,18.825 C299.400004,18.825 300.037497,18.7083345 300.6125,18.475 C301.187503,18.2416655 301.679165,17.9208354 302.0875,17.5125 C302.495835,17.1041646 302.812499,16.6250028 303.0375,16.075 C303.262501,15.5249973 303.375,14.9333365 303.375,14.3 Z" id="@Copyright-Blussuvol" fill="#C0BEBE"></path>
    </g>
</svg>