<?xml version="1.0" encoding="UTF-8"?>
<svg width="402px" height="172px" viewBox="0 0 402 172" version="1.1" xmlns="http://www.w3.org/2000/svg" xmlns:xlink="http://www.w3.org/1999/xlink">
    <!-- Generator: Sketch 52.4 (67378) - http://www.bohemiancoding.com/sketch -->
    <title>Untitled</title>
    <desc>Created with Sketch.</desc>
    <g id="Page-1" stroke="none" stroke-width="1" fill="none" fill-rule="evenodd">
        <g id="SvgjsG1009" transform="translate(1.000000, 1.000000)" fill="#D1FCDC" stroke="#A3EFA4">
            <rect id="Rectangle" x="0" y="0" width="400" height="170"></rect>
        </g>
        <g id="SvgjsG1011" transform="translate(47.000000, 51.000000)">
            <g id="Group">
                <g id="Path">
                    <polygon fill="#A3EFA4" points="66.21 0.486 66.21 25.79 91.514 25.79"></polygon>
                    <polygon fill="#585858" points="19.366 40.268 0.486 21.389 0.486 91.514 70.611 91.514 51.732 72.634 19.366 72.634"></polygon>
                    <polygon fill="#A3EFA4" points="19.366 2.509 19.366 40.268 51.732 72.634 89.491 72.634"></polygon>
                    <polygon fill="#C8C8C8" points="19.366 72.634 51.732 72.634 19.366 40.268"></polygon>
                </g>
            </g>
        </g>
        <g id="SvgjsG1013" transform="translate(162.000000, 60.000000)" fill="#585858" fill-rule="nonzero">
            <g id="Group" transform="translate(0.875000, 0.921875)">
                <path d="M0.88,0.67 L4.63,0.67 L4.63,48.49 L8.38,48.49 L8.38,51.3 L0.88,51.3 L0.88,0.67 Z M20.63,6.3 L20.63,9.11 L16.88,9.11 L16.88,25.99 L20.63,25.99 L20.63,28.8 L16.88,28.8 L16.88,48.49 L20.63,48.49 L20.63,51.3 L13.13,51.3 L13.13,6.3 L20.63,6.3 Z M28.19,10.02 L28.19,47.08 C28.19,47.78 28.3366667,48.2666667 28.63,48.54 C28.9233333,48.82 29.2433333,48.96 29.59,48.96 C29.9433333,48.96 30.2666667,48.82 30.56,48.54 C30.8533333,48.2666667 31,47.78 31,47.08 L31,31.61 L30.06,31.61 L30.06,28.8 L34.75,28.8 L34.75,47.08 C34.75,47.9 34.6033333,48.6066667 34.31,49.2 C34.0166667,49.8 33.6266667,50.29 33.14,50.67 C32.6533333,51.05 32.1,51.3266667 31.48,51.5 C30.8666667,51.68 30.2366667,51.77 29.59,51.77 C28.95,51.77 28.32,51.68 27.7,51.5 C27.0866667,51.3266667 26.5366667,51.05 26.05,50.67 C25.5633333,50.29 25.1733333,49.8 24.88,49.2 C24.5866667,48.6066667 24.44,47.9 24.44,47.08 L24.44,10.05 C24.44,9.23 24.5866667,8.52 24.88,7.92 C25.1733333,7.32666667 25.5633333,6.84 26.05,6.46 C26.5366667,6.08 27.0866667,5.80333333 27.7,5.63 C28.32,5.45 28.95,5.36 29.59,5.36 C30.2366667,5.36 30.8666667,5.45 31.48,5.63 C32.1,5.80333333 32.6533333,6.08 33.14,6.46 C33.6266667,6.84 34.0166667,7.32333333 34.31,7.91 C34.6033333,8.49666667 34.75,9.2 34.75,10.02 L34.75,25.05 L31,25.05 L31,10.02 C31,9.31333333 30.8533333,8.83 30.56,8.57 C30.2666667,8.30333333 29.9433333,8.17 29.59,8.17 C29.2433333,8.17 28.9233333,8.30333333 28.63,8.57 C28.3366667,8.83 28.19,9.31333333 28.19,10.02 Z M50.75,10.52 L50.75,47.08 C50.75,47.9 50.6,48.6066667 50.3,49.2 C49.9933333,49.8 49.5866667,50.2933333 49.08,50.68 C48.5733333,51.0733333 47.9966667,51.3633333 47.35,51.55 C46.7033333,51.7366667 46.04,51.83 45.36,51.83 C44.64,51.83 43.9266667,51.7266667 43.22,51.52 C42.52,51.3133333 41.8966667,51.01 41.35,50.61 C40.8033333,50.21 40.3566667,49.7133333 40.01,49.12 C39.67,48.52 39.5,47.84 39.5,47.08 L39.5,10.52 C39.5,9.77333333 39.67,9.11333333 40.01,8.54 C40.3566667,7.96666667 40.8066667,7.48333333 41.36,7.09 C41.92,6.69666667 42.55,6.4 43.25,6.2 C43.95,5.99333333 44.6633333,5.89 45.39,5.89 C46.07,5.89 46.7333333,5.98333333 47.38,6.17 C48.0266667,6.35666667 48.5966667,6.64 49.09,7.02 C49.59,7.4 49.9933333,7.88333333 50.3,8.47 C50.6,9.05666667 50.75,9.74 50.75,10.52 Z M47,47.08 L47,10.52 C47,9.85333333 46.84,9.38 46.52,9.1 C46.1933333,8.81333333 45.8166667,8.67 45.39,8.67 C45.1366667,8.67 44.8833333,8.71333333 44.63,8.8 C44.3766667,8.89333333 44.1466667,9.02 43.94,9.18 C43.7333333,9.34666667 43.5666667,9.54333333 43.44,9.77 C43.3133333,9.99666667 43.25,10.2466667 43.25,10.52 L43.25,47.08 C43.25,47.3533333 43.3133333,47.6066667 43.44,47.84 C43.5666667,48.0733333 43.7333333,48.27 43.94,48.43 C44.1466667,48.5833333 44.37,48.7033333 44.61,48.79 C44.8566667,48.8833333 45.1066667,48.93 45.36,48.93 C45.7866667,48.93 46.1666667,48.7866667 46.5,48.5 C46.8333333,48.22 47,47.7466667 47,47.08 Z M70.94,35.36 L73.76,0.67 L77.51,0.67 L78.44,51.3 L74.69,51.3 L74.69,16.61 L71.88,48.49 L70.01,48.49 L67.19,16.61 L67.19,51.3 L63.44,51.3 L64.38,0.67 L68.13,0.67 L70.94,35.36 Z M83.66,6.3 L87.41,6.3 L87.41,51.3 L83.66,51.3 L83.66,6.3 Z M103.88,6.3 L103.88,51.3 L101.07,51.3 L95.91,25.05 L95.91,51.3 L92.63,51.3 L92.63,6.3 L95.44,6.3 L100.63,33.49 L100.63,6.3 L103.88,6.3 Z M116.13,47.58 L116.13,9.99 C116.13,9.61666667 115.953333,9.38333333 115.6,9.29 C115.273333,9.17 114.2,9.11 112.38,9.11 L112.38,48.49 C114.2,48.49 115.273333,48.43 115.6,48.31 C115.953333,48.19 116.13,47.9466667 116.13,47.58 Z M119.88,10.08 L119.88,47.34 C119.88,48.34 119.67,49.1066667 119.25,49.64 C118.83,50.18 118.21,50.5766667 117.39,50.83 C116.996667,50.95 116.52,51.0433333 115.96,51.11 C115.393333,51.1766667 114.61,51.23 113.61,51.27 C112.616667,51.29 111.736667,51.3 110.97,51.3 L108.63,51.3 L108.63,6.3 C109.43,6.3 110.236667,6.30333333 111.05,6.31 C111.856667,6.32333333 112.68,6.34 113.52,6.36 C115.24,6.4 116.51,6.52666667 117.33,6.74 C118.17,6.97333333 118.806667,7.35 119.24,7.87 C119.666667,8.38333333 119.88,9.12 119.88,10.08 Z M134.94,10.52 L134.94,22.24 L131.19,22.24 L131.19,10.52 C131.19,9.81333333 131.043333,9.32333333 130.75,9.05 C130.456667,8.77666667 130.136667,8.64 129.79,8.64 C129.436667,8.64 129.113333,8.77666667 128.82,9.05 C128.526667,9.32333333 128.38,9.81333333 128.38,10.52 C128.38,12.6066667 128.476667,14.53 128.67,16.29 C128.87,18.05 129.126667,19.67 129.44,21.15 C129.746667,22.6366667 130.096667,23.99 130.49,25.21 C130.883333,26.43 131.273333,27.5466667 131.66,28.56 C131.973333,29.3666667 132.32,30.2966667 132.7,31.35 C133.08,32.4033333 133.436667,33.6633333 133.77,35.13 C134.103333,36.59 134.383333,38.2966667 134.61,40.25 C134.83,42.2033333 134.94,44.48 134.94,47.08 C134.94,47.9 134.793333,48.6066667 134.5,49.2 C134.206667,49.8 133.816667,50.29 133.33,50.67 C132.843333,51.05 132.293333,51.3266667 131.68,51.5 C131.06,51.68 130.43,51.77 129.79,51.77 C129.143333,51.77 128.513333,51.68 127.9,51.5 C127.28,51.3266667 126.726667,51.05 126.24,50.67 C125.753333,50.29 125.363333,49.8 125.07,49.2 C124.776667,48.6066667 124.63,47.9 124.63,47.08 L124.63,35.36 L128.38,35.36 L128.38,47.08 C128.38,47.78 128.526667,48.2666667 128.82,48.54 C129.113333,48.82 129.436667,48.96 129.79,48.96 C130.136667,48.96 130.456667,48.82 130.75,48.54 C131.043333,48.2666667 131.19,47.78 131.19,47.08 C131.19,44.56 131.07,42.3466667 130.83,40.44 C130.583333,38.54 130.273333,36.8633333 129.9,35.41 C129.533333,33.95 129.13,32.6733333 128.69,31.58 C128.25,30.4866667 127.843333,29.48 127.47,28.56 C127.103333,27.6666667 126.746667,26.6433333 126.4,25.49 C126.06,24.3366667 125.76,23.0266667 125.5,21.56 C125.233333,20.1 125.023333,18.4566667 124.87,16.63 C124.71,14.8033333 124.63,12.7666667 124.63,10.52 C124.63,9.7 124.776667,8.99666667 125.07,8.41 C125.363333,7.82333333 125.753333,7.34 126.24,6.96 C126.726667,6.58 127.28,6.29666667 127.9,6.11 C128.513333,5.92333333 129.143333,5.83 129.79,5.83 C130.43,5.83 131.06,5.92333333 131.68,6.11 C132.293333,6.29666667 132.843333,6.58 133.33,6.96 C133.816667,7.34 134.206667,7.82333333 134.5,8.41 C134.793333,8.99666667 134.94,9.7 134.94,10.52 Z M138.29,6.3 L149.54,6.3 L149.54,9.11 L145.79,9.11 L145.79,51.3 L142.04,51.3 L142.04,9.11 L138.29,9.11 L138.29,6.3 Z M164.13,10.52 L164.13,47.08 C164.13,47.9 163.98,48.6066667 163.68,49.2 C163.373333,49.8 162.966667,50.2933333 162.46,50.68 C161.953333,51.0733333 161.376667,51.3633333 160.73,51.55 C160.09,51.7366667 159.426667,51.83 158.74,51.83 C158.02,51.83 157.306667,51.7266667 156.6,51.52 C155.9,51.3133333 155.276667,51.01 154.73,50.61 C154.183333,50.21 153.736667,49.7133333 153.39,49.12 C153.05,48.52 152.88,47.84 152.88,47.08 L152.88,10.52 C152.88,9.77333333 153.05,9.11333333 153.39,8.54 C153.736667,7.96666667 154.186667,7.48333333 154.74,7.09 C155.3,6.69666667 155.93,6.4 156.63,6.2 C157.336667,5.99333333 158.05,5.89 158.77,5.89 C159.45,5.89 160.113333,5.98333333 160.76,6.17 C161.406667,6.35666667 161.98,6.64 162.48,7.02 C162.973333,7.4 163.373333,7.88333333 163.68,8.47 C163.98,9.05666667 164.13,9.74 164.13,10.52 Z M160.38,47.08 L160.38,10.52 C160.38,9.85333333 160.22,9.38 159.9,9.1 C159.573333,8.81333333 159.196667,8.67 158.77,8.67 C158.516667,8.67 158.263333,8.71333333 158.01,8.8 C157.756667,8.89333333 157.526667,9.02 157.32,9.18 C157.113333,9.34666667 156.946667,9.54333333 156.82,9.77 C156.693333,9.99666667 156.63,10.2466667 156.63,10.52 L156.63,47.08 C156.63,47.3533333 156.693333,47.6066667 156.82,47.84 C156.946667,48.0733333 157.113333,48.27 157.32,48.43 C157.526667,48.5833333 157.75,48.7033333 157.99,48.79 C158.236667,48.8833333 158.486667,48.93 158.74,48.93 C159.166667,48.93 159.546667,48.7866667 159.88,48.5 C160.213333,48.22 160.38,47.7466667 160.38,47.08 Z M179.19,10.05 L179.19,25.05 C179.19,25.99 178.956667,26.7133333 178.49,27.22 C178.023333,27.7266667 177.32,28.0866667 176.38,28.3 C177.32,28.5533333 178.023333,28.9333333 178.49,29.44 C178.956667,29.9533333 179.19,30.6766667 179.19,31.61 L179.19,51.3 L175.44,51.3 L175.44,31.61 C175.44,31.1433333 175.383333,30.7833333 175.27,30.53 C175.15,30.2766667 174.973333,30.09 174.74,29.97 C174.506667,29.85 174.213333,29.7833333 173.86,29.77 C173.506667,29.75 173.096667,29.74 172.63,29.74 L172.63,51.3 L168.88,51.3 L168.88,6.3 L173.1,6.3 C174.366667,6.3 175.456667,6.40333333 176.37,6.61 C177.276667,6.81 177.973333,7.17 178.46,7.69 C178.946667,8.21 179.19,8.99666667 179.19,10.05 Z M175.44,25.05 L175.44,10.99 C175.44,10.5166667 175.383333,10.1533333 175.27,9.9 C175.15,9.64666667 174.973333,9.46333333 174.74,9.35 C174.506667,9.23 174.213333,9.16 173.86,9.14 C173.506667,9.12 173.096667,9.11 172.63,9.11 L172.63,26.92 C173.096667,26.92 173.506667,26.91 173.86,26.89 C174.213333,26.8766667 174.506667,26.81 174.74,26.69 C174.973333,26.57 175.15,26.3833333 175.27,26.13 C175.383333,25.8766667 175.44,25.5166667 175.44,25.05 Z M190.51,33.49 L193.76,6.3 L197.07,6.3 L197.07,51.3 L193.79,51.3 L193.79,24.11 L191.24,49.42 L189.77,49.42 L187.22,24.11 L187.22,51.3 L183.94,51.3 L183.94,6.3 L187.25,6.3 L190.51,33.49 Z M212.13,10.52 L212.13,22.24 L208.38,22.24 L208.38,10.52 C208.38,9.81333333 208.233333,9.32333333 207.94,9.05 C207.646667,8.77666667 207.323333,8.64 206.97,8.64 C206.623333,8.64 206.303333,8.77666667 206.01,9.05 C205.716667,9.32333333 205.57,9.81333333 205.57,10.52 C205.57,12.6066667 205.666667,14.53 205.86,16.29 C206.053333,18.05 206.306667,19.67 206.62,21.15 C206.933333,22.6366667 207.286667,23.99 207.68,25.21 C208.066667,26.43 208.456667,27.5466667 208.85,28.56 C209.163333,29.3666667 209.51,30.2966667 209.89,31.35 C210.27,32.4033333 210.626667,33.6633333 210.96,35.13 C211.293333,36.59 211.57,38.2966667 211.79,40.25 C212.016667,42.2033333 212.13,44.48 212.13,47.08 C212.13,47.9 211.983333,48.6066667 211.69,49.2 C211.396667,49.8 211.006667,50.29 210.52,50.67 C210.033333,51.05 209.48,51.3266667 208.86,51.5 C208.246667,51.68 207.616667,51.77 206.97,51.77 C206.33,51.77 205.7,51.68 205.08,51.5 C204.466667,51.3266667 203.916667,51.05 203.43,50.67 C202.943333,50.29 202.553333,49.8 202.26,49.2 C201.966667,48.6066667 201.82,47.9 201.82,47.08 L201.82,35.36 L205.57,35.36 L205.57,47.08 C205.57,47.78 205.716667,48.2666667 206.01,48.54 C206.303333,48.82 206.623333,48.96 206.97,48.96 C207.323333,48.96 207.646667,48.82 207.94,48.54 C208.233333,48.2666667 208.38,47.78 208.38,47.08 C208.38,44.56 208.256667,42.3466667 208.01,40.44 C207.77,38.54 207.463333,36.8633333 207.09,35.41 C206.723333,33.95 206.32,32.6733333 205.88,31.58 C205.44,30.4866667 205.033333,29.48 204.66,28.56 C204.286667,27.6666667 203.93,26.6433333 203.59,25.49 C203.25,24.3366667 202.946667,23.0266667 202.68,21.56 C202.42,20.1 202.21,18.4566667 202.05,16.63 C201.896667,14.8033333 201.82,12.7666667 201.82,10.52 C201.82,9.7 201.966667,8.99666667 202.26,8.41 C202.553333,7.82333333 202.943333,7.34 203.43,6.96 C203.916667,6.58 204.466667,6.29666667 205.08,6.11 C205.7,5.92333333 206.33,5.83 206.97,5.83 C207.616667,5.83 208.246667,5.92333333 208.86,6.11 C209.48,6.29666667 210.033333,6.58 210.52,6.96 C211.006667,7.34 211.396667,7.82333333 211.69,8.41 C211.983333,8.99666667 212.13,9.7 212.13,10.52 Z" id="Shape"></path>
            </g>
        </g>
    </g>
</svg>