<?xml version="1.0" encoding="UTF-8"?>
<svg width="402px" height="172px" viewBox="0 0 402 172" version="1.1" xmlns="http://www.w3.org/2000/svg" xmlns:xlink="http://www.w3.org/1999/xlink">
    <!-- Generator: Sketch 52.4 (67378) - http://www.bohemiancoding.com/sketch -->
    <title>Untitled</title>
    <desc>Created with Sketch.</desc>
    <g id="Page-1" stroke="none" stroke-width="1" fill="none" fill-rule="evenodd">
        <g id="SvgjsG1009" transform="translate(1.000000, 1.000000)" fill="#D1FCDC" stroke="#A3EFA4">
            <rect id="Rectangle" x="0" y="0" width="400" height="170"></rect>
        </g>
        <g id="SvgjsG1011" transform="translate(66.000000, 40.000000)">
            <g id="Group" transform="translate(0.156250, 0.625000)">
                <g id="Path">
                    <polygon fill="#A3EFA4" points="95.677 33.461 76.585 33.461 57.487 66.539 95.671 66.539 114.766 33.466 114.796 33.414 95.671 0.289 76.579 0.289 95.704 33.414 95.677 33.461"></polygon>
                    <polygon fill="#585858" points="76.585 33.461 95.677 33.461 95.704 33.414 76.579 0.289 57.487 0.289 76.612 33.414"></polygon>
                    <polygon fill="#C8C8C8" points="38.329 0.289 19.238 0.289 0.113 33.414 19.238 66.539 38.329 66.539 19.204 33.414 38.329 0.289"></polygon>
                    <polygon fill="#585858" points="38.296 33.414 57.421 0.289 38.329 0.289 19.204 33.414 38.329 66.539 57.415 66.539 57.418 66.534 38.296 33.414"></polygon>
                    <polygon fill="#C8C8C8" points="57.418 66.534 76.513 33.461 76.585 33.461 76.612 33.414 57.487 0.289 57.421 0.289 38.296 33.414 57.418 66.534"></polygon>
                    <polygon fill="#585858" points="114.766 33.466 95.671 66.539 57.415 66.539 57.388 66.586 76.513 99.711 114.763 99.711 133.887 66.586"></polygon>
                    <polygon fill="#000000" points="57.487 66.539 76.585 33.461 76.513 33.461 57.418 66.534 57.415 66.539 57.487 66.539"></polygon>
                </g>
            </g>
        </g>
        <g id="SvgjsG1013" transform="translate(215.000000, 63.000000)" fill="#585858" fill-rule="nonzero">
            <g id="Group" transform="translate(0.156250, 0.500000)">
                <path d="M8.44,46.61 L8.44,38.96 C8.44,36.8933333 8.33333333,35.1166667 8.12,33.63 C7.9,32.15 7.61666667,30.8566667 7.27,29.75 C6.91666667,28.65 6.51333333,27.69 6.06,26.87 C5.61333333,26.0433333 5.15666667,25.27 4.69,24.55 C4.21666667,23.83 3.75666667,23.1066667 3.31,22.38 C2.86333333,21.66 2.46333333,20.84 2.11,19.92 C1.75666667,19 1.47333333,17.94 1.26,16.74 C1.04666667,15.54 0.94,14.1 0.94,12.42 L0.94,5.36 C0.94,4.89333333 1.01333333,4.36 1.16,3.76 C1.30666667,3.16666667 1.58333333,2.61 1.99,2.09 C2.40333333,1.57666667 2.97666667,1.14 3.71,0.78 C4.43666667,0.413333333 5.38666667,0.23 6.56,0.23 C7.73333333,0.23 8.68666667,0.413333333 9.42,0.78 C10.1533333,1.14 10.7233333,1.57666667 11.13,2.09 C11.5433333,2.61 11.8233333,3.16666667 11.97,3.76 C12.1166667,4.36 12.19,4.89333333 12.19,5.36 L12.19,18.49 L8.44,18.49 L8.44,5.36 C8.44,4.89333333 8.38666667,4.50666667 8.28,4.2 C8.17333333,3.9 8.03,3.66666667 7.85,3.5 C7.67666667,3.33333333 7.47666667,3.21666667 7.25,3.15 C7.02333333,3.08333333 6.79333333,3.05 6.56,3.05 C6.32666667,3.05 6.09666667,3.08333333 5.87,3.15 C5.65,3.21666667 5.45,3.33333333 5.27,3.5 C5.09666667,3.66666667 4.95666667,3.9 4.85,4.2 C4.74333333,4.50666667 4.69,4.89333333 4.69,5.36 L4.69,11.07 C4.69,13.2766667 4.87333333,15.1233333 5.24,16.61 C5.61333333,18.0966667 6.08,19.39 6.64,20.49 C7.19333333,21.5966667 7.79333333,22.6 8.44,23.5 C9.08,24.3933333 9.68,25.3633333 10.24,26.41 C10.7933333,27.4566667 11.2566667,28.6666667 11.63,30.04 C12.0033333,31.42 12.19,33.1366667 12.19,35.19 L12.19,46.61 C12.19,46.8433333 12.16,47.27 12.1,47.89 C12.04,48.5033333 11.8333333,49.1333333 11.48,49.78 C11.1333333,50.42 10.5766667,50.99 9.81,51.49 C9.05,51.99 7.96666667,52.24 6.56,52.24 C5.15333333,52.24 4.07,51.99 3.31,51.49 C2.55,50.99 1.99333333,50.42 1.64,49.78 C1.28666667,49.1333333 1.08333333,48.5033333 1.03,47.89 C0.97,47.27 0.94,46.8433333 0.94,46.61 L0.94,29.74 L4.69,29.74 L4.69,46.61 C4.69,46.8433333 4.7,47.1233333 4.72,47.45 C4.74,47.77 4.80666667,48.0766667 4.92,48.37 C5.04,48.6633333 5.22666667,48.9133333 5.48,49.12 C5.73333333,49.32 6.09333333,49.42 6.56,49.42 C7.03333333,49.42 7.39666667,49.32 7.65,49.12 C7.90333333,48.9133333 8.08666667,48.6633333 8.2,48.37 C8.32,48.0766667 8.39,47.77 8.41,47.45 C8.43,47.1233333 8.44,46.8433333 8.44,46.61 Z M27.25,10.52 L27.25,25.05 L23.5,25.05 L23.5,10.52 C23.5,9.85333333 23.3333333,9.38 23,9.1 C22.6666667,8.81333333 22.2866667,8.67 21.86,8.67 C21.6066667,8.67 21.3566667,8.71333333 21.11,8.8 C20.87,8.89333333 20.6466667,9.02 20.44,9.18 C20.2333333,9.34666667 20.0666667,9.54333333 19.94,9.77 C19.8133333,9.99666667 19.75,10.2466667 19.75,10.52 L19.75,47.08 C19.75,47.3533333 19.8133333,47.6066667 19.94,47.84 C20.0666667,48.0733333 20.2333333,48.2733333 20.44,48.44 C20.6466667,48.6066667 20.87,48.7333333 21.11,48.82 C21.3566667,48.9133333 21.6066667,48.96 21.86,48.96 C22.2866667,48.96 22.6666667,48.8133333 23,48.52 C23.3333333,48.2266667 23.5,47.7466667 23.5,47.08 L23.5,30.67 L27.25,30.67 L27.25,47.08 C27.25,47.86 27.0833333,48.55 26.75,49.15 C26.4166667,49.7433333 25.9866667,50.24 25.46,50.64 C24.9333333,51.04 24.33,51.3433333 23.65,51.55 C22.9633333,51.7566667 22.27,51.86 21.57,51.86 C20.8633333,51.86 20.18,51.76 19.52,51.56 C18.8533333,51.3666667 18.2566667,51.07 17.73,50.67 C17.2033333,50.27 16.7833333,49.77 16.47,49.17 C16.1566667,48.5766667 16,47.88 16,47.08 L16,10.52 C16,9.74 16.16,9.04666667 16.48,8.44 C16.8066667,7.83333333 17.2333333,7.33333333 17.76,6.94 C18.2866667,6.55333333 18.89,6.25666667 19.57,6.05 C20.2566667,5.84333333 20.95,5.74 21.65,5.74 C22.3566667,5.74 23.0433333,5.84 23.71,6.04 C24.37,6.23333333 24.9633333,6.53 25.49,6.93 C26.0166667,7.33 26.4433333,7.82666667 26.77,8.42 C27.09,9.02 27.25,9.72 27.25,10.52 Z M42.31,10.05 L42.31,25.05 C42.31,25.99 42.0766667,26.7133333 41.61,27.22 C41.1433333,27.7266667 40.44,28.0866667 39.5,28.3 C40.44,28.5533333 41.1433333,28.9333333 41.61,29.44 C42.0766667,29.9533333 42.31,30.6766667 42.31,31.61 L42.31,51.3 L38.56,51.3 L38.56,31.61 C38.56,31.1433333 38.5033333,30.7833333 38.39,30.53 C38.27,30.2766667 38.0933333,30.09 37.86,29.97 C37.6266667,29.85 37.3333333,29.7833333 36.98,29.77 C36.6266667,29.75 36.2166667,29.74 35.75,29.74 L35.75,51.3 L32,51.3 L32,6.3 L36.22,6.3 C37.4866667,6.3 38.5766667,6.40333333 39.49,6.61 C40.3966667,6.81 41.0933333,7.17 41.58,7.69 C42.0666667,8.21 42.31,8.99666667 42.31,10.05 Z M38.56,25.05 L38.56,10.99 C38.56,10.5166667 38.5033333,10.1533333 38.39,9.9 C38.27,9.64666667 38.0933333,9.46333333 37.86,9.35 C37.6266667,9.23 37.3333333,9.16 36.98,9.14 C36.6266667,9.12 36.2166667,9.11 35.75,9.11 L35.75,26.92 C36.2166667,26.92 36.6266667,26.91 36.98,26.89 C37.3333333,26.8766667 37.6266667,26.81 37.86,26.69 C38.0933333,26.57 38.27,26.3833333 38.39,26.13 C38.5033333,25.8766667 38.56,25.5166667 38.56,25.05 Z M53.63,6.3 L57.38,51.3 L53.63,51.3 L53.04,41.57 L50.43,41.57 L49.88,51.3 L46.13,51.3 L49.88,6.3 L53.63,6.3 Z M50.64,38.53 L52.83,38.53 L51.75,15.67 L50.64,38.53 Z M59.78,6.3 L71.03,6.3 L71.03,9.11 L67.28,9.11 L67.28,51.3 L63.53,51.3 L63.53,9.11 L59.78,9.11 L59.78,6.3 Z M85.63,10.52 L85.63,25.05 L81.88,25.05 L81.88,10.52 C81.88,9.85333333 81.7133333,9.38 81.38,9.1 C81.0466667,8.81333333 80.6633333,8.67 80.23,8.67 C79.9766667,8.67 79.73,8.71333333 79.49,8.8 C79.2433333,8.89333333 79.0166667,9.02 78.81,9.18 C78.61,9.34666667 78.4466667,9.54333333 78.32,9.77 C78.1933333,9.99666667 78.13,10.2466667 78.13,10.52 L78.13,47.08 C78.13,47.3533333 78.1933333,47.6066667 78.32,47.84 C78.4466667,48.0733333 78.61,48.2733333 78.81,48.44 C79.0166667,48.6066667 79.2433333,48.7333333 79.49,48.82 C79.73,48.9133333 79.9766667,48.96 80.23,48.96 C80.6633333,48.96 81.0466667,48.8133333 81.38,48.52 C81.7133333,48.2266667 81.88,47.7466667 81.88,47.08 L81.88,30.67 L85.63,30.67 L85.63,47.08 C85.63,47.86 85.4633333,48.55 85.13,49.15 C84.7966667,49.7433333 84.3666667,50.24 83.84,50.64 C83.3133333,51.04 82.7066667,51.3433333 82.02,51.55 C81.34,51.7566667 80.6466667,51.86 79.94,51.86 C79.24,51.86 78.5566667,51.76 77.89,51.56 C77.2233333,51.3666667 76.6266667,51.07 76.1,50.67 C75.5733333,50.27 75.1533333,49.77 74.84,49.17 C74.5333333,48.5766667 74.38,47.88 74.38,47.08 L74.38,10.52 C74.38,9.74 74.54,9.04666667 74.86,8.44 C75.18,7.83333333 75.6033333,7.33333333 76.13,6.94 C76.6566667,6.55333333 77.2633333,6.25666667 77.95,6.05 C78.63,5.84333333 79.3233333,5.74 80.03,5.74 C80.73,5.74 81.4133333,5.84 82.08,6.04 C82.7466667,6.23333333 83.3433333,6.53 83.87,6.93 C84.3966667,7.33 84.82,7.82666667 85.14,8.42 C85.4666667,9.02 85.63,9.72 85.63,10.52 Z M97.88,26.51 L97.88,6.3 L101.63,6.3 L101.63,51.3 L97.88,51.3 L97.88,29.44 L94.13,29.44 L94.13,51.3 L90.38,51.3 L90.38,6.3 L94.13,6.3 L94.13,26.51 L97.88,26.51 Z" id="Shape"></path>
            </g>
        </g>
    </g>
</svg>